<mxfile>
    <diagram id="R2lEEEUBdFMjLlhIrx00" name="Page-1">
        <mxGraphModel dx="550" dy="320" grid="1" gridSize="10" guides="1" tooltips="1" connect="1" arrows="1" fold="1" page="1" pageScale="1" pageWidth="850" pageHeight="1100" math="0" shadow="0" extFonts="Permanent Marker^https://fonts.googleapis.com/css?family=Permanent+Marker">
            <root>
                <mxCell id="0"/>
                <mxCell id="1" parent="0"/>
                <mxCell id="SAZfkbVJt4RAnXdiAb_S-3" value="Кинозал" style="whiteSpace=wrap;html=1;align=center;" parent="1" vertex="1">
                    <mxGeometry x="70" y="160" width="100" height="40" as="geometry"/>
                </mxCell>
                <mxCell id="SAZfkbVJt4RAnXdiAb_S-4" value="Фильм" style="whiteSpace=wrap;html=1;align=center;" parent="1" vertex="1">
                    <mxGeometry x="450" y="160" width="100" height="40" as="geometry"/>
                </mxCell>
                <mxCell id="SAZfkbVJt4RAnXdiAb_S-5" value="Проигрывается" style="shape=rhombus;perimeter=rhombusPerimeter;whiteSpace=wrap;html=1;align=center;" parent="1" vertex="1">
                    <mxGeometry x="240" y="150" width="120" height="60" as="geometry"/>
                </mxCell>
                <mxCell id="SAZfkbVJt4RAnXdiAb_S-6" value="Зрители" style="whiteSpace=wrap;html=1;align=center;" parent="1" vertex="1">
                    <mxGeometry x="250" y="290" width="100" height="40" as="geometry"/>
                </mxCell>
                <mxCell id="SAZfkbVJt4RAnXdiAb_S-12" value="" style="edgeStyle=entityRelationEdgeStyle;fontSize=12;html=1;endArrow=ERzeroToMany;endFill=1;startArrow=ERzeroToMany;exitX=1;exitY=0.5;exitDx=0;exitDy=0;entryX=0;entryY=0.5;entryDx=0;entryDy=0;" parent="1" source="SAZfkbVJt4RAnXdiAb_S-3" target="SAZfkbVJt4RAnXdiAb_S-5" edge="1">
                    <mxGeometry width="100" height="100" relative="1" as="geometry">
                        <mxPoint x="370" y="410" as="sourcePoint"/>
                        <mxPoint x="470" y="310" as="targetPoint"/>
                    </mxGeometry>
                </mxCell>
                <mxCell id="SAZfkbVJt4RAnXdiAb_S-14" value="" style="fontSize=12;html=1;endArrow=ERzeroToMany;endFill=1;startArrow=ERzeroToMany;exitX=0.5;exitY=0;exitDx=0;exitDy=0;entryX=0.5;entryY=1;entryDx=0;entryDy=0;" parent="1" source="SAZfkbVJt4RAnXdiAb_S-6" target="SAZfkbVJt4RAnXdiAb_S-5" edge="1">
                    <mxGeometry width="100" height="100" relative="1" as="geometry">
                        <mxPoint x="190" y="200" as="sourcePoint"/>
                        <mxPoint x="260" y="200" as="targetPoint"/>
                    </mxGeometry>
                </mxCell>
                <mxCell id="SAZfkbVJt4RAnXdiAb_S-15" value="" style="edgeStyle=entityRelationEdgeStyle;fontSize=12;html=1;endArrow=ERzeroToMany;endFill=1;startArrow=ERzeroToMany;exitX=1;exitY=0.5;exitDx=0;exitDy=0;entryX=0;entryY=0.5;entryDx=0;entryDy=0;" parent="1" source="SAZfkbVJt4RAnXdiAb_S-5" target="SAZfkbVJt4RAnXdiAb_S-4" edge="1">
                    <mxGeometry width="100" height="100" relative="1" as="geometry">
                        <mxPoint x="200" y="210" as="sourcePoint"/>
                        <mxPoint x="270" y="210" as="targetPoint"/>
                    </mxGeometry>
                </mxCell>
                <mxCell id="pPjJjWMOVlpRmOxmtLB4-2" value="Касса" style="whiteSpace=wrap;html=1;align=center;" parent="1" vertex="1">
                    <mxGeometry x="70" y="470" width="100" height="40" as="geometry"/>
                </mxCell>
                <mxCell id="pPjJjWMOVlpRmOxmtLB4-3" value="Кассир" style="whiteSpace=wrap;html=1;align=center;" parent="1" vertex="1">
                    <mxGeometry x="450" y="470" width="100" height="40" as="geometry"/>
                </mxCell>
                <mxCell id="5F4qNbFjBmBmn2BJghM5-2" value="Продаются" style="shape=rhombus;perimeter=rhombusPerimeter;whiteSpace=wrap;html=1;align=center;" parent="1" vertex="1">
                    <mxGeometry x="240" y="460" width="120" height="60" as="geometry"/>
                </mxCell>
                <mxCell id="5F4qNbFjBmBmn2BJghM5-3" value="Зрители" style="whiteSpace=wrap;html=1;align=center;" parent="1" vertex="1">
                    <mxGeometry x="250" y="580" width="100" height="40" as="geometry"/>
                </mxCell>
                <mxCell id="5F4qNbFjBmBmn2BJghM5-4" value="Билеты" style="whiteSpace=wrap;html=1;align=center;" parent="1" vertex="1">
                    <mxGeometry x="250" y="360" width="100" height="40" as="geometry"/>
                </mxCell>
                <mxCell id="5F4qNbFjBmBmn2BJghM5-9" value="" style="edgeStyle=entityRelationEdgeStyle;fontSize=12;html=1;endArrow=ERzeroToMany;endFill=1;startArrow=ERzeroToMany;exitX=1;exitY=0.5;exitDx=0;exitDy=0;entryX=0;entryY=0.5;entryDx=0;entryDy=0;" parent="1" source="pPjJjWMOVlpRmOxmtLB4-2" target="5F4qNbFjBmBmn2BJghM5-2" edge="1">
                    <mxGeometry width="100" height="100" relative="1" as="geometry">
                        <mxPoint x="370" y="420" as="sourcePoint"/>
                        <mxPoint x="470" y="320" as="targetPoint"/>
                    </mxGeometry>
                </mxCell>
                <mxCell id="5F4qNbFjBmBmn2BJghM5-10" value="" style="fontSize=12;html=1;endArrow=ERzeroToMany;endFill=1;startArrow=ERzeroToMany;exitX=0.5;exitY=0;exitDx=0;exitDy=0;entryX=0.5;entryY=1;entryDx=0;entryDy=0;" parent="1" source="5F4qNbFjBmBmn2BJghM5-2" target="5F4qNbFjBmBmn2BJghM5-4" edge="1">
                    <mxGeometry width="100" height="100" relative="1" as="geometry">
                        <mxPoint x="180" y="500" as="sourcePoint"/>
                        <mxPoint x="250" y="500" as="targetPoint"/>
                    </mxGeometry>
                </mxCell>
                <mxCell id="5F4qNbFjBmBmn2BJghM5-11" value="" style="edgeStyle=entityRelationEdgeStyle;fontSize=12;html=1;endArrow=halfCircle;endFill=0;startArrow=ERzeroToMany;exitX=1;exitY=0.5;exitDx=0;exitDy=0;entryX=0;entryY=0.5;entryDx=0;entryDy=0;" parent="1" source="5F4qNbFjBmBmn2BJghM5-2" target="pPjJjWMOVlpRmOxmtLB4-3" edge="1">
                    <mxGeometry width="100" height="100" relative="1" as="geometry">
                        <mxPoint x="190" y="510" as="sourcePoint"/>
                        <mxPoint x="260" y="510" as="targetPoint"/>
                    </mxGeometry>
                </mxCell>
                <mxCell id="5F4qNbFjBmBmn2BJghM5-12" value="" style="fontSize=12;html=1;endArrow=ERzeroToMany;endFill=1;startArrow=ERzeroToMany;exitX=0.5;exitY=0;exitDx=0;exitDy=0;entryX=0.5;entryY=1;entryDx=0;entryDy=0;" parent="1" source="5F4qNbFjBmBmn2BJghM5-3" target="5F4qNbFjBmBmn2BJghM5-2" edge="1">
                    <mxGeometry width="100" height="100" relative="1" as="geometry">
                        <mxPoint x="200" y="520" as="sourcePoint"/>
                        <mxPoint x="270" y="520" as="targetPoint"/>
                    </mxGeometry>
                </mxCell>
                <mxCell id="5F4qNbFjBmBmn2BJghM5-13" value="Сотрудники" style="whiteSpace=wrap;html=1;align=center;" parent="1" vertex="1">
                    <mxGeometry x="660" y="160" width="100" height="40" as="geometry"/>
                </mxCell>
                <mxCell id="5F4qNbFjBmBmn2BJghM5-14" value="Руководит" style="shape=rhombus;perimeter=rhombusPerimeter;whiteSpace=wrap;html=1;align=center;" parent="1" vertex="1">
                    <mxGeometry x="820" y="150" width="120" height="60" as="geometry"/>
                </mxCell>
                <mxCell id="5F4qNbFjBmBmn2BJghM5-15" value="" style="edgeStyle=orthogonalEdgeStyle;fontSize=12;html=1;endArrow=ERzeroToMany;startArrow=ERmandOne;exitX=0.5;exitY=0;exitDx=0;exitDy=0;entryX=0.5;entryY=0;entryDx=0;entryDy=0;" parent="1" source="5F4qNbFjBmBmn2BJghM5-13" target="5F4qNbFjBmBmn2BJghM5-14" edge="1">
                    <mxGeometry width="100" height="100" relative="1" as="geometry">
                        <mxPoint x="370" y="380" as="sourcePoint"/>
                        <mxPoint x="470" y="280" as="targetPoint"/>
                    </mxGeometry>
                </mxCell>
                <mxCell id="5F4qNbFjBmBmn2BJghM5-16" value="" style="edgeStyle=orthogonalEdgeStyle;fontSize=12;html=1;endArrow=ERzeroToMany;startArrow=ERmandOne;exitX=0.5;exitY=1;exitDx=0;exitDy=0;entryX=0.5;entryY=1;entryDx=0;entryDy=0;" parent="1" source="5F4qNbFjBmBmn2BJghM5-14" target="5F4qNbFjBmBmn2BJghM5-13" edge="1">
                    <mxGeometry width="100" height="100" relative="1" as="geometry">
                        <mxPoint x="370" y="380" as="sourcePoint"/>
                        <mxPoint x="470" y="280" as="targetPoint"/>
                    </mxGeometry>
                </mxCell>
                <mxCell id="2" value="" style="ellipse;whiteSpace=wrap;html=1;aspect=fixed;fillColor=#60a917;strokeColor=#2D7600;fontColor=#ffffff;" vertex="1" parent="1">
                    <mxGeometry x="495" y="375" width="5" height="5" as="geometry"/>
                </mxCell>
            </root>
        </mxGraphModel>
    </diagram>
</mxfile>